<svg width="128" height="128" viewBox="0 0 128 128" fill="none" xmlns="http://www.w3.org/2000/svg">
  <defs>
    <filter id="grain" x="0" y="0" width="100%" height="100%">
      <feTurbulence type="fractalNoise" baseFrequency="0.9" numOctaves="2" stitchTiles="stitch" result="n"></feTurbulence>
      <feColorMatrix in="n" type="saturate" values="0"></feColorMatrix>
      <feComponentTransfer><feFuncA type="linear" slope="0.5"></feFuncA></feComponentTransfer>
      <feComposite operator="in" in2="SourceGraphic"></feComposite>
    </filter>
    <clipPath id="disc"><circle cx="64" cy="64" r="52"></circle></clipPath>
  </defs>
  <circle cx="64" cy="64" r="52" fill="#183A37" opacity="0.05"></circle>
  <g clip-path="url(#disc)">
    <path d="M64 30 C44 44, 40 76, 60 96 C84 82, 88 50, 64 30 Z" fill="#C28A4A" opacity="0.5" style="mix-blend-mode:multiply" transform="translate(-2.4,2.4)"></path>
    <path d="M64 30 C44 44, 40 76, 60 96 C84 82, 88 50, 64 30 Z" fill="#183A37" opacity="0.12"></path>
    <path d="M64 30 C44 44, 40 76, 60 96 C84 82, 88 50, 64 30 Z" fill="none" stroke="#183A37" stroke-width="2.6" stroke-linejoin="round"></path>
    <path d="M63 36 C62 56, 61 78, 60 94" stroke="#183A37" stroke-width="2" fill="none"></path>
    <path d="M63 50 C70 48, 76 50, 80 56" stroke="#183A37" stroke-width="1.5" opacity="0.45" fill="none"></path>
    <path d="M62 64 C69 63, 75 66, 79 72" stroke="#183A37" stroke-width="1.5" opacity="0.45" fill="none"></path>
    <path d="M62 50 C55 49, 49 52, 46 58" stroke="#183A37" stroke-width="1.5" opacity="0.45" fill="none"></path>
    <path d="M61 64 C54 64, 49 68, 46 74" stroke="#183A37" stroke-width="1.5" opacity="0.45" fill="none"></path>
  </g>
  <circle cx="64" cy="64" r="52" fill="#183A37" opacity="0.38" style="mix-blend-mode:multiply" filter="url(#grain)" clip-path="url(#disc)"></circle>
</svg>