<svg width="128" height="128" viewBox="0 0 128 128" fill="none" xmlns="http://www.w3.org/2000/svg">
  <defs>
    <filter id="grain" x="0" y="0" width="100%" height="100%">
      <feTurbulence type="fractalNoise" baseFrequency="0.9" numOctaves="2" stitchTiles="stitch" result="n"></feTurbulence>
      <feColorMatrix in="n" type="saturate" values="0"></feColorMatrix>
      <feComponentTransfer><feFuncA type="linear" slope="0.5"></feFuncA></feComponentTransfer>
      <feComposite operator="in" in2="SourceGraphic"></feComposite>
    </filter>
    <clipPath id="disc"><circle cx="64" cy="64" r="52"></circle></clipPath>
  </defs>
  <circle cx="64" cy="64" r="52" fill="#183A37" opacity="0.05"></circle>
  <g clip-path="url(#disc)">
    <path d="M44 72 H84 L79 96 H49 Z" fill="#183A37" opacity="0.12"></path>
    <path d="M44 72 H84 L79 96 H49 Z" fill="none" stroke="#183A37" stroke-width="2.5" stroke-linejoin="round"></path>
    <line x1="44" y1="72" x2="84" y2="72" stroke="#183A37" stroke-width="2.5"></line>
    <path d="M64 72 C64 60, 64 52, 64 44" stroke="#183A37" stroke-width="2.6" fill="none"></path>
    <path d="M64 54 C56 52, 46 46, 44 36 C54 35, 63 41, 64 52 Z" fill="#C28A4A" opacity="0.5" style="mix-blend-mode:multiply" transform="translate(-2,2)"></path>
    <path d="M64 54 C56 52, 46 46, 44 36 C54 35, 63 41, 64 52 Z" fill="#FAF9F5" stroke="#183A37" stroke-width="2.3" stroke-linejoin="round"></path>
    <path d="M64 50 C72 47, 82 40, 85 30 C75 29, 65 36, 64 48 Z" fill="#FAF9F5" stroke="#183A37" stroke-width="2.3" stroke-linejoin="round"></path>
  </g>
  <circle cx="64" cy="64" r="52" fill="#183A37" opacity="0.38" style="mix-blend-mode:multiply" filter="url(#grain)" clip-path="url(#disc)"></circle>
</svg>